<?xml version="1.0" encoding="utf-8"?>
<!DOCTYPE svg PUBLIC "-//W3C//DTD SVG 1.1//EN" "http://www.w3.org/Graphics/SVG/1.1/DTD/svg11.dtd">
<svg xmlns="http://www.w3.org/2000/svg" xmlns:xlink="http://www.w3.org/1999/xlink" version="1.1" width="500" height="500" viewBox="0 0 500 500" xml:space="preserve">
	<g transform="matrix(1.0333 0 0 1.0333 249.9952 249.9952)" id="800414">
		<path style="stroke: none; stroke-width: 1; stroke-dasharray: none; stroke-linecap: butt; stroke-dashoffset: 0; stroke-linejoin: miter; stroke-miterlimit: 4; is-custom-font: none; font-file-url: none; fill: rgb(238,90,47); fill-rule: nonzero; opacity: 1;" vector-effect="non-scaling-stroke" transform=" translate(-300, -300)" d="M 300.001 60 C 167.427 60 60 167.473 60 300.009 C 60 432.546 167.427 540 300.001 540 C 432.556 540 540 432.546 540 300.009 C 540 167.473 432.551 60 300.001 60 z M 235.276 435.326 c -12.994 0 -23.527 -10.542 -23.527 -23.523 c 0 -13.008 10.533 -23.551 23.527 -23.551 c 13.012 0 23.54 10.543 23.54 23.551 C 258.816 424.784 248.288 435.326 235.276 435.326 z M 305.892 435.326 c -13.009 0 -23.541 -10.542 -23.541 -23.523 c 0 -13.008 10.532 -23.551 23.541 -23.551 c 13.002 0 23.515 10.543 23.529 23.551 C 329.421 424.784 318.894 435.326 305.892 435.326 z M 419.619 196.782 c -9.534 9.288 -22.557 14.98 -36.907 14.98 H 370.93 c -3.246 0 -5.855 2.614 -5.855 5.856 v 17.656 h 47.06 c 0 26.014 -21.07 47.088 -47.06 47.088 v 23.523 c 0 30.748 -19.658 56.896 -47.09 66.587 c -3.799 1.356 -7.716 2.381 -11.776 3.044 c -3.808 0.649 -7.744 0.981 -11.754 0.981 h -59.178 c -4.01 0 -7.929 -0.332 -11.769 -0.981 c -4.057 -0.663 -7.976 -1.688 -11.759 -3.044 c -27.417 -9.69 -47.074 -35.839 -47.074 -66.587 c 0 -34.959 25.448 -64.032 58.833 -69.631 c 3.84 -0.634 7.759 -0.98 11.769 -0.98 h 64.886 v 47.088 h -64.886 c -12.98 0 -23.527 10.547 -23.527 23.523 c 0 12.994 10.547 23.537 23.527 23.537 h 59.178 c 12.98 0 23.53 -10.543 23.53 -23.537 v -88.261 c 0 -14.884 6.173 -28.34 16.039 -37.977 c 9.532 -9.274 22.591 -14.967 36.906 -14.974 h 64.396 C 433.969 177.229 428.186 188.427 419.619 196.782 z" stroke-linecap="round"/>
	</g>
</svg>
